<svg width="192" height="192" viewBox="0 0 192 192" fill="none" xmlns="http://www.w3.org/2000/svg">
  <rect width="192" height="192" rx="40" fill="#3B82F6"/>
  <path d="M96 48C82.7452 48 72 58.7452 72 72V84C72 90.8406 69.6825 97.4412 65.5147 102.609L60.6863 108.314C55.7716 113.923 59.4289 122.667 66.6667 122.667H125.333C132.571 122.667 136.228 113.923 131.314 108.314L126.485 102.609C122.318 97.4412 120 90.8406 120 84V72C120 58.7452 109.255 48 96 48Z" fill="white"/>
  <path d="M84 128C84 134.627 89.3726 140 96 140C102.627 140 108 134.627 108 128H84Z" fill="white"/>
  <circle cx="108" cy="60" r="12" fill="#EF4444"/>
</svg>