<svg xmlns="http://www.w3.org/2000/svg" viewBox="0 0 24 24" fill="#00A1E0"><path d="M10.006 5.17a4.162 4.162 0 0 1 3.07-1.35 4.18 4.18 0 0 1 3.875 2.625 3.615 3.615 0 0 1 1.54-.345C20.43 6.1 22 7.695 22 9.66a3.575 3.575 0 0 1-2.89 3.51.202.202 0 0 1-.04.005h-.005A5.06 5.06 0 0 1 14.22 17a5.035 5.035 0 0 1-2.14-.475l-.08-.04a4.86 4.86 0 0 1-4.16 2.355A4.89 4.89 0 0 1 3.3 14.49a4.865 4.865 0 0 1 .42-1.99A3.92 3.92 0 0 1 2 9.34a3.93 3.93 0 0 1 3.935-3.93 3.9 3.9 0 0 1 1.535.315 4.588 4.588 0 0 1 2.536-2.3V3.4l-.001.005V5.17Z"/></svg>