<?xml version="1.0" encoding="UTF-8"?>
<svg id="Layer_1" xmlns="http://www.w3.org/2000/svg" version="1.1" viewBox="0 0 699.900085 215.119995">
  <!-- Generator: Adobe Illustrator 30.1.0, SVG Export Plug-In . SVG Version: 2.1.1 Build 136)  -->
  <defs>
    <style>
      .st0 {
        fill: #8d6afa;
      }

      .st1 {
        fill: #7356ce;
      }

      .st2 {
        fill: #3e2d77;
      }

      .st3 {
        fill: #5842a3;
      }
    </style>
  </defs>
  <g>
    <path class="st0" d="M247.670013,25.869995v65.799988h-7.709991l-39.480011-49.070007v49.070007h-9.399994V25.869995h7.709991l39.480011,49.070007V25.869995h9.399994Z"/>
    <path class="st0" d="M315.160004,83.48999v8.179993h-47.75V25.869995h46.429993v8.179993h-37.029999v20.209991h32.98999v7.98999h-32.98999v21.240021h38.350006Z"/>
    <path class="st0" d="M329.820007,63.279999V25.869995h9.400024v37.029999c0,14.570007,6.669983,21.149994,18.52002,21.149994s18.609985-6.579987,18.609985-21.149994V25.869995h9.119995v37.410004c0,19.079987-10.429993,29.139984-27.820007,29.139984s-27.820007-10.059998-27.820007-29.140015l-.01001.000031Z"/>
    <path class="st0" d="M448.730042,91.669983l-14.190002-20.209991c-1.320007.089996-2.72998.190002-4.140015.190002h-16.26001v20.019989h-9.400024V25.869995h25.659973c17.109985,0,27.450012,8.649994,27.450012,22.929993,0,10.149994-5.26001,17.480011-14.47998,20.769989l15.599976,22.089996h-10.25l.010071.01001ZM448.450012,48.809998c0-9.399994-6.299988-14.76001-18.330017-14.76001h-15.97998v29.609985h15.97998c12.030029,0,18.330017-5.450012,18.330017-14.850006v.000031Z"/>
    <path class="st0" d="M515,75.220001h-34.970032l-7.23999,16.449982h-9.679993l29.799988-65.799988h9.309998l29.890015,65.799988h-9.869995l-7.23999-16.450012v.000031ZM511.710022,67.699982l-14.190002-32.23999-14.190002,32.23999h28.390015-.01001Z"/>
    <path class="st0" d="M541.880005,25.869995h9.400024v57.619995h35.619995v8.179993h-45.02002V25.869995Z"/>
    <path class="st2" d="M183.840027,167.169983l5.170013-11.469971c5.549988,4.039978,13.820007,6.859985,21.709991,6.859985,9.019989,0,12.690002-3.01001,12.690002-7.049988,0-12.309998-38.26001-3.849976-38.26001-28.289978,0-11.190002,9.019989-20.48999,27.730011-20.48999,8.269989,0,16.730011,1.969971,22.839996,5.830017l-4.700012,11.559998c-6.109985-3.47998-12.410004-5.169983-18.23999-5.169983-9.019989,0-12.5,3.380005-12.5,7.52002,0,12.119995,38.26001,3.76001,38.26001,27.919983,0,11-9.119995,20.400024-27.920013,20.400024-10.429993,0-20.959991-3.099976-26.790009-7.609985l.01001-.010132Z"/>
    <path class="st2" d="M248.420013,144.700012v-36.849976h15.230011v36.279968c0,12.5,5.450012,17.669983,14.660004,17.669983s14.660004-5.169983,14.660004-17.669983v-36.280029h15.040009v36.849976c0,19.359985-11.089996,30.080017-29.799988,30.080017s-29.799988-10.719971-29.799988-30.080017l.009949.000061Z"/>
    <path class="st2" d="M382.929993,173.650024l-.090027-39.47998-19.359985,32.52002h-6.859985l-19.27002-31.679993v38.630005h-14.289978v-65.799988h12.599976l24.630005,40.890015,24.25-40.890015h12.5l.190002,65.799988h-14.289978l-.01001.009949Z"/>
    <path class="st2" d="M472.700012,173.650024l-.090027-39.47998-19.359985,32.52002h-6.859985l-19.27002-31.679993v38.630005h-14.289978v-65.799988h12.599976l24.630005,40.890015,24.25-40.890015h12.5l.190002,65.799988h-14.289978l-.01001.009949Z"/>
    <path class="st2" d="M545.919983,159.549988h-30.549988l-5.830017,14.099976h-15.599976l29.330017-65.799988h15.039978l29.419983,65.799988h-15.97998l-5.830017-14.099976ZM541.130005,147.98999l-10.429993-25.190002-10.429993,25.190002h20.869995-.01001Z"/>
    <path class="st2" d="M616.51001,173.650024l-12.690002-18.330017h-14.01001v18.330017h-15.22998v-65.799988h28.47998c17.580017,0,28.570007,9.119995,28.570007,23.869995,0,9.869995-4.97998,17.109985-13.539978,20.77002l14.76001,21.150024h-16.359985l.019958.009949ZM602.220032,120.26001h-12.409973v22.929993h12.409973c9.309998,0,14.01001-4.320007,14.01001-11.469971s-4.700012-11.469971-14.01001-11.469971v.009949Z"/>
    <path class="st2" d="M674.320007,150.339966v23.309998h-15.22998v-23.5l-25.469971-42.299988h16.169983l17.580017,29.22998,17.580017-29.22998h14.950012l-25.570007,42.48999h-.010071Z"/>
  </g>
  <g>
    <g>
      <path class="st0" d="M149.950012,133.779968v9.679993c0,.52002,0,1.039978-.019989,1.570007l-.51001-.539978-9.670013-10.539978-35.130005-38.299988c-7.720001-8.400024-18.23999-13.030029-29.649994-13.030029s-21.919998,4.630005-29.630005,13.030029l-35.139999,38.309998-9.669998,10.539978-.509995.549988c-.009995-.539978-.020004-1.070007-.020004-1.590027v-9.679993l.529999-.570007,9.669998-10.549988,29.490005-32.159973c9.050003-9.859985,21.910004-15.5,35.269989-15.5s26.230011,5.640015,35.269989,15.5l29.5,32.159973,9.670013,10.549988.529999.570007h.02002Z"/>
      <path class="st1" d="M147.610016,152.039978c-1,2.400024-2.119995,4.76001-3.359985,7.030029l-42.01001-31.640015c-16.049988-12.099976-38.459991-12.099976-54.509995,0l-42.009995,31.630005c-1.229996-2.280029-2.350006-4.619995-3.360001-7.02002l40.779999-30.719971c18.75-14.119995,44.949997-14.119995,63.699997,0l40.779999,30.719971h-.01001Z"/>
      <path class="st3" d="M140.870026,164.710022c-1.410004,2.150024.26001,6.049988-1.359985,8.039978l-43.179993-24.929993c-13.160004-7.590027-29.519989-7.590027-42.679993,0l-43.179993,24.929993c-1.619995-1.97998.050003-5.890015-1.360001-8.039978l40.729996-23.5c15.520004-8.950012,34.799988-8.950012,50.320007,0l40.730011,23.5h-.02005Z"/>
      <path class="st2" d="M99.279999,163.039978l35.929993,16.299988c-1.970001,1.960022-2.390015,4.570007-4.559998,6.320007l-34.519989-15.679993c-13.429993-6.090027-28.850006-6.099976-42.279999,0l-33.979996,14.650024c-2.169998-1.76001-3.25-3.27002-5.220001-5.22998l36.050003-16.359985c15.440002-7.01001,33.149994-7.01001,48.589996,0l-.01001-.000061Z"/>
      <path class="st2" d="M87.140015,182.289978l37.850006,8.02002c-3.399994,2.109985-2.570007,4.859985-6.299988,6.440002l-33.130005-6.98999c-7.019989-1.47998-14.140015-1.47998-21.160004,0l-31.970001,6.75c-3.729996-1.580017-4.740005-3.97998-8.130005-6.090027l38.540009-8.119995c8.059998-1.700012,16.230011-1.700012,24.309998,0l-.01001-.01001Z"/>
      <path class="st0" d="M94.680023,42c-5.429993,0-10.369995,2.200012-13.929993,5.76001-3.559998,3.570007-5.769989,8.5-5.769989,13.940002,0-5.440002-2.200012-10.369995-5.76001-13.940002-3.570007-3.559998-8.479996-5.76001-13.929993-5.76001,5.440002,0,10.350006-2.200012,13.929993-5.76001,3.559998-3.559998,5.76001-8.5,5.76001-13.929993,0,10.880005,8.829987,19.690002,19.700012,19.690002h-.000031Z"/>
    </g>
    <path class="st2" d="M77.210022,0h-4.440002C32.650024,0,.01001,32.630005.01001,72.75v69.619995c0,.530029.009995,1.049988.020004,1.590027.009995.51001.029999,1.02002.050003,1.539978.110001,2.679993.360001,5.330017.759995,7.929993.539993,3.429993,1.300003,6.789978,2.300003,10.039978.720001,2.429993,1.589996,4.799988,2.570007,7.119995,1.339996,3.169983,2.899994,6.22998,4.660004,9.150024.300003.47998.589996.960022.889999,1.440002,12.899994,20.380005,35.639999,33.940002,61.509995,33.940002h4.440002c25.859985,0,48.600006-13.559998,61.5-33.940002.299988-.47998.589996-.960022.890015-1.440002,1.76001-2.919983,3.320007-5.969971,4.660004-9.150024.980011-2.320007,1.839996-4.690002,2.570007-7.119995,1-3.25,1.76001-6.609985,2.290009-10.039978.399994-2.599976.649994-5.25.76001-7.929993.019989-.52002.040009-1.030029.049988-1.549988h0c.019989-.539978.019989-1.070007.019989-1.580017v-69.619995C149.950043,32.640015,117.320038,0,77.200043,0h.009979ZM77.210022,204.900024h-4.440002c-11.240005,0-21.800003-2.97998-30.919998-8.190002-3.059998-1.75-5.960007-3.73999-8.660004-5.969971-2.190002-1.780029-4.25-3.710022-6.169998-5.780029-.259995-.289978-.539993-.570007-.779999-.869995-1.649994-1.799988-3.160004-3.710022-4.559998-5.690002-.009995-.01001-.020004-.030029-.029999-.039978-1.649994-2.330017-3.130005-4.77002-4.449997-7.309998-.529999-1.01001-1.020004-2.039978-1.490005-3.090027-.580002-1.299988-1.119995-2.609985-1.610001-3.940002-.399994-1.030029-.759995-2.080017-1.089996-3.130005-.429993-1.390015-.809998-2.809998-1.139999-4.25h0c-.509995-2.130005-.889999-4.280029-1.160004-6.47998-.089996-.679993-.149994-1.359985-.220001-2.039978-.179993-1.900024-.259995-3.820007-.259995-5.75v-69.619995c0-34.480011,28.069992-62.549988,62.560013-62.549988h4.440002c34.48999,0,62.549988,28.070007,62.549988,62.549988v69.619995c0,1.929993-.089996,3.849976-.26001,5.75-.070007.679993-.130005,1.359985-.220001,2.039978-.269989,2.200012-.670013,4.359985-1.160004,6.47998-.329987,1.440002-.709991,2.840027-1.140015,4.23999-.329987,1.070007-.690002,2.119995-1.079987,3.150024-.48999,1.330017-1.040009,2.650024-1.630005,3.929993-.470001,1.039978-.970001,2.080017-1.48999,3.090027-1.320007,2.549988-2.799988,4.98999-4.450012,7.309998-.01001.01001,2.929993.47998,2.920013.5-1.519989,2.150024-6.119995,3.75-7.910004,5.690002-.119995.140015-.23999.289978-.369995.419983-1.929993,2.080017-4,4.01001-6.190002,5.799988-2.700012,2.219971-5.589996,4.219971-8.640015,5.950012-9.119995,5.219971-19.679993,8.190002-30.920013,8.190002l-.029968-.01001Z"/>
  </g>
</svg>