<?xml version="1.0" encoding="UTF-8"?>
<svg id="Layer_1" xmlns="http://www.w3.org/2000/svg" version="1.1" viewBox="0 0 442.9 635.3">
  <!-- Generator: Adobe Illustrator 30.1.0, SVG Export Plug-In . SVG Version: 2.1.1 Build 136)  -->
  <defs>
    <style>
      .st0 {
        fill: #fff;
      }
    </style>
  </defs>
  <g>
    <path class="st0" d="M442.9,395.1v28.6c0,1.5,0,3.1,0,4.6l-1.5-1.6-28.6-31.1-103.8-113.1c-22.8-24.8-53.9-38.5-87.6-38.5s-64.7,13.7-87.5,38.5l-103.8,113.2-28.6,31.1-1.5,1.6c0-1.6,0-3.2,0-4.7v-28.6l1.6-1.7,28.6-31.2,87.1-95c26.7-29.1,64.7-45.8,104.2-45.8s77.5,16.7,104.2,45.8l87.2,95,28.6,31.2,1.6,1.7h0Z"/>
    <path class="st0" d="M435.9,449.1c-3,7.1-6.3,14-9.9,20.8l-124.1-93.5c-47.4-35.7-113.6-35.7-161,0l-124.1,93.4c-3.6-6.7-7-13.6-9.9-20.7l120.4-90.7c55.4-41.7,132.8-41.7,188.1,0l120.4,90.7h0Z"/>
    <path class="st0" d="M416,486.5c-4.2,6.3.8,17.9-4,23.7l-127.5-73.6c-38.9-22.4-87.2-22.4-126.1,0l-127.5,73.6c-4.8-5.9.2-17.4-4-23.7l120.3-69.4c45.8-26.5,102.8-26.5,148.6,0l120.3,69.4h0Z"/>
    <path class="st0" d="M293.2,481.6l106.1,48.2c-5.8,5.8-7,13.5-13.5,18.7l-102-46.3c-39.7-18-85.2-18-124.9,0l-100.4,43.3c-6.4-5.2-9.6-9.7-15.4-15.5l106.5-48.3c45.6-20.7,97.9-20.7,143.5,0Z"/>
    <path class="st0" d="M257.3,538.4l111.8,23.7c-10,6.2-7.6,14.4-18.6,19l-97.8-20.7c-20.7-4.4-41.8-4.4-62.5,0l-94.4,19.9c-11-4.7-14-11.8-24-18l113.8-24c23.8-5,47.9-5,71.8,0Z"/>
    <path class="st0" d="M279.6,124.1c-16,0-30.6,6.5-41.1,17-10.5,10.6-17.1,25.1-17.1,41.2,0-16.1-6.5-30.6-17-41.2-10.6-10.5-25.1-17-41.1-17,16.1,0,30.6-6.5,41.1-17,10.5-10.5,17-25.1,17-41.1,0,32.1,26.1,58.2,58.2,58.2h0Z"/>
  </g>
  <path class="st0" d="M228,0h-13.1C96.4,0,0,96.4,0,214.9v205.6c0,1.6,0,3.1,0,4.7,0,1.5.1,3,.2,4.5.3,7.9,1.1,15.7,2.2,23.4,1.6,10.1,3.8,20,6.8,29.6,2.1,7.2,4.7,14.2,7.6,21,4,9.4,8.6,18.4,13.8,27,.9,1.4,1.8,2.8,2.6,4.2,38.1,60.2,105.3,100.2,181.7,100.2h13.1c76.4,0,143.5-40.1,181.7-100.2.9-1.4,1.8-2.8,2.6-4.2,5.2-8.6,9.8-17.6,13.8-27,2.9-6.8,5.5-13.8,7.6-21,3-9.6,5.2-19.5,6.8-29.6,1.2-7.7,1.9-15.5,2.2-23.4,0-1.5.1-3,.2-4.6h0c0-1.6,0-3.1,0-4.7v-205.6C442.9,96.4,346.5,0,228,0h0ZM228,605.2h-13.1c-33.2,0-64.4-8.8-91.3-24.2-9-5.2-17.6-11.1-25.6-17.6-6.5-5.2-12.5-11-18.2-17.1-.8-.8-1.6-1.7-2.3-2.6-4.9-5.3-9.3-11-13.5-16.8,0,0,0,0-.1-.1-4.9-6.9-9.2-14.1-13.1-21.6-1.6-3-3-6-4.4-9.1-1.7-3.8-3.3-7.7-4.8-11.6-1.2-3-2.2-6.1-3.2-9.2-1.3-4.1-2.4-8.3-3.4-12.5h0c-1.5-6.3-2.6-12.7-3.4-19.1-.3-2-.5-4-.6-6-.5-5.6-.8-11.3-.8-17v-205.6C30.1,113.1,113,30.2,214.9,30.2h13.1c101.9,0,184.7,82.9,184.7,184.7v205.6c0,5.7-.3,11.4-.8,17-.2,2-.4,4-.7,6-.8,6.5-2,12.9-3.4,19.1-1,4.2-2.1,8.4-3.4,12.5-1,3.2-2,6.3-3.2,9.3-1.5,3.9-3.1,7.8-4.8,11.6-1.4,3.1-2.8,6.1-4.4,9.1-3.9,7.5-8.3,14.7-13.1,21.6,0,0,8.7,1.4,8.6,1.5-4.5,6.4-18.1,11.1-23.3,16.8-.4.4-.7.8-1.1,1.2-5.7,6.1-11.8,11.8-18.3,17.1-8,6.5-16.5,12.5-25.5,17.6-27,15.4-58.1,24.2-91.3,24.2h0Z"/>
</svg>