<?xml version="1.0" encoding="UTF-8"?>
<svg id="Layer_1" xmlns="http://www.w3.org/2000/svg" version="1.1" viewBox="0 0 699.9 220.7">
  <!-- Generator: Adobe Illustrator 30.1.0, SVG Export Plug-In . SVG Version: 2.1.1 Build 136)  -->
  <defs>
    <style>
      .st0 {
        letter-spacing: .2em;
      }

      .st0, .st1, .st2, .st3, .st4, .st5 {
        font-family: Montserrat-SemiBold, Montserrat;
        font-size: 30px;
        font-weight: 600;
      }

      .st0, .st1, .st2, .st3, .st4, .st5, .st6 {
        isolation: isolate;
      }

      .st0, .st1, .st2, .st3, .st4, .st5, .st7 {
        fill: #fff;
      }

      .st1 {
        letter-spacing: .2em;
      }

      .st2 {
        letter-spacing: .2em;
      }

      .st3 {
        letter-spacing: .2em;
      }

      .st4 {
        letter-spacing: .2em;
      }

      .st5 {
        letter-spacing: .2em;
      }
    </style>
  </defs>
  <g>
    <path class="st7" d="M247.7,25.9v65.8h-7.7l-39.5-49.1v49.1h-9.4V25.9h7.7l39.5,49.1V25.9h9.4Z"/>
    <path class="st7" d="M315.2,83.5v8.2h-47.8V25.9h46.4v8.2h-37v20.2h33v8h-33v21.2h38.4Z"/>
    <path class="st7" d="M329.8,63.3V25.9h9.4v37c0,14.6,6.7,21.1,18.5,21.1s18.6-6.6,18.6-21.1V25.9h9.1v37.4c0,19.1-10.4,29.1-27.8,29.1s-27.8-10.1-27.8-29.1h0Z"/>
    <path class="st7" d="M448.7,91.7l-14.2-20.2c-1.3,0-2.7.2-4.1.2h-16.3v20h-9.4V25.9h25.7c17.1,0,27.5,8.6,27.5,22.9s-5.3,17.5-14.5,20.8l15.6,22.1h-10.2,0ZM448.5,48.8c0-9.4-6.3-14.8-18.3-14.8h-16v29.6h16c12,0,18.3-5.5,18.3-14.9h0Z"/>
    <path class="st7" d="M515,75.2h-35l-7.2,16.4h-9.7l29.8-65.8h9.3l29.9,65.8h-9.9l-7.2-16.5h0ZM511.7,67.7l-14.2-32.2-14.2,32.2h28.4,0Z"/>
    <path class="st7" d="M541.9,25.9h9.4v57.6h35.6v8.2h-45V25.9Z"/>
    <path class="st7" d="M183.8,167.2l5.2-11.5c5.5,4,13.8,6.9,21.7,6.9s12.7-3,12.7-7c0-12.3-38.3-3.8-38.3-28.3s9-20.5,27.7-20.5,16.7,2,22.8,5.8l-4.7,11.6c-6.1-3.5-12.4-5.2-18.2-5.2-9,0-12.5,3.4-12.5,7.5,0,12.1,38.3,3.8,38.3,27.9s-9.1,20.4-27.9,20.4-21-3.1-26.8-7.6h0Z"/>
    <path class="st7" d="M248.4,144.7v-36.8h15.2v36.3c0,12.5,5.5,17.7,14.7,17.7s14.7-5.2,14.7-17.7v-36.3h15v36.8c0,19.4-11.1,30.1-29.8,30.1s-29.8-10.7-29.8-30.1h0Z"/>
    <path class="st7" d="M382.9,173.7v-39.5c0,0-19.5,32.5-19.5,32.5h-6.9l-19.3-31.7v38.6h-14.3v-65.8h12.6l24.6,40.9,24.2-40.9h12.5l.2,65.8h-14.3Z"/>
    <path class="st7" d="M472.7,173.7v-39.5c0,0-19.5,32.5-19.5,32.5h-6.9l-19.3-31.7v38.6h-14.3v-65.8h12.6l24.6,40.9,24.2-40.9h12.5l.2,65.8h-14.3Z"/>
    <path class="st7" d="M545.9,159.5h-30.5l-5.8,14.1h-15.6l29.3-65.8h15l29.4,65.8h-16l-5.8-14.1ZM541.1,148l-10.4-25.2-10.4,25.2h20.9,0Z"/>
    <path class="st7" d="M616.5,173.7l-12.7-18.3h-14v18.3h-15.2v-65.8h28.5c17.6,0,28.6,9.1,28.6,23.9s-5,17.1-13.5,20.8l14.8,21.2h-16.4,0ZM602.2,120.3h-12.4v22.9h12.4c9.3,0,14-4.3,14-11.5s-4.7-11.5-14-11.5h0Z"/>
    <path class="st7" d="M674.3,150.3v23.3h-15.2v-23.5l-25.5-42.3h16.2l17.6,29.2,17.6-29.2h15l-25.6,42.5h0Z"/>
  </g>
  <g>
    <g>
      <path class="st7" d="M150,133.8v9.7c0,.5,0,1,0,1.6l-.5-.5-9.7-10.5-35.1-38.3c-7.7-8.4-18.2-13-29.6-13s-21.9,4.6-29.6,13l-35.1,38.3-9.7,10.5-.5.5c0-.5,0-1.1,0-1.6v-9.7l.5-.6,9.7-10.5,29.5-32.2c9.1-9.9,21.9-15.5,35.3-15.5s26.2,5.6,35.3,15.5l29.5,32.2,9.7,10.5.5.6h0Z"/>
      <path class="st7" d="M147.6,152c-1,2.4-2.1,4.8-3.4,7l-42-31.6c-16-12.1-38.5-12.1-54.5,0l-42,31.6c-1.2-2.3-2.4-4.6-3.4-7l40.8-30.7c18.8-14.1,44.9-14.1,63.7,0l40.8,30.7h0Z"/>
      <path class="st7" d="M140.9,164.7c-1.4,2.2.3,6-1.4,8l-43.2-24.9c-13.2-7.6-29.5-7.6-42.7,0l-43.2,24.9c-1.6-2,0-5.9-1.4-8l40.7-23.5c15.5-9,34.8-9,50.3,0l40.7,23.5h0Z"/>
      <path class="st7" d="M99.3,163l35.9,16.3c-2,2-2.4,4.6-4.6,6.3l-34.5-15.7c-13.4-6.1-28.9-6.1-42.3,0l-34,14.7c-2.2-1.8-3.2-3.3-5.2-5.2l36.1-16.4c15.4-7,33.1-7,48.6,0h0Z"/>
      <path class="st7" d="M87.1,182.3l37.9,8c-3.4,2.1-2.6,4.9-6.3,6.4l-33.1-7c-7-1.5-14.1-1.5-21.2,0l-32,6.8c-3.7-1.6-4.7-4-8.1-6.1l38.5-8.1c8.1-1.7,16.2-1.7,24.3,0h0Z"/>
      <path class="st7" d="M94.7,42c-5.4,0-10.4,2.2-13.9,5.8-3.6,3.6-5.8,8.5-5.8,13.9,0-5.4-2.2-10.4-5.8-13.9-3.6-3.6-8.5-5.8-13.9-5.8,5.4,0,10.4-2.2,13.9-5.8,3.6-3.6,5.8-8.5,5.8-13.9,0,10.9,8.8,19.7,19.7,19.7h0Z"/>
    </g>
    <path class="st7" d="M77.2,0h-4.4C32.7,0,0,32.6,0,72.8v69.6c0,.5,0,1,0,1.6,0,.5,0,1,0,1.5.1,2.7.4,5.3.8,7.9.5,3.4,1.3,6.8,2.3,10,.7,2.4,1.6,4.8,2.6,7.1,1.3,3.2,2.9,6.2,4.7,9.2.3.5.6,1,.9,1.4,12.9,20.4,35.6,33.9,61.5,33.9h4.4c25.9,0,48.6-13.6,61.5-33.9.3-.5.6-1,.9-1.4,1.8-2.9,3.3-6,4.7-9.2,1-2.3,1.8-4.7,2.6-7.1,1-3.2,1.8-6.6,2.3-10,.4-2.6.6-5.2.8-7.9,0-.5,0-1,0-1.5h0c0-.5,0-1.1,0-1.6v-69.6C150,32.6,117.3,0,77.2,0h0ZM77.2,204.9h-4.4c-11.2,0-21.8-3-30.9-8.2-3.1-1.8-6-3.7-8.7-6-2.2-1.8-4.2-3.7-6.2-5.8-.3-.3-.5-.6-.8-.9-1.6-1.8-3.2-3.7-4.6-5.7,0,0,0,0,0,0-1.6-2.3-3.1-4.8-4.4-7.3-.5-1-1-2-1.5-3.1-.6-1.3-1.1-2.6-1.6-3.9-.4-1-.8-2.1-1.1-3.1-.4-1.4-.8-2.8-1.1-4.2h0c-.5-2.1-.9-4.3-1.2-6.5,0-.7-.1-1.4-.2-2-.2-1.9-.3-3.8-.3-5.8v-69.6c0-34.5,28.1-62.5,62.6-62.5h4.4c34.5,0,62.5,28.1,62.5,62.5v69.6c0,1.9,0,3.8-.3,5.8,0,.7-.1,1.4-.2,2-.3,2.2-.7,4.4-1.2,6.5-.3,1.4-.7,2.8-1.1,4.2-.3,1.1-.7,2.1-1.1,3.2-.5,1.3-1,2.7-1.6,3.9-.5,1-1,2.1-1.5,3.1-1.3,2.5-2.8,5-4.5,7.3,0,0,2.9.5,2.9.5-1.5,2.2-6.1,3.8-7.9,5.7-.1.1-.2.3-.4.4-1.9,2.1-4,4-6.2,5.8-2.7,2.2-5.6,4.2-8.6,6-9.1,5.2-19.7,8.2-30.9,8.2h0Z"/>
  </g>
  <g class="st6">
    <text class="st5" transform="translate(185.2 212.8)"><tspan x="0" y="0">Y</tspan></text>
    <text class="st1" transform="translate(210.1 212.8)"><tspan x="0" y="0">OU S</tspan></text>
    <text class="st0" transform="translate(310.2 212.8)"><tspan x="0" y="0">P</tspan></text>
    <text class="st2" transform="translate(337.7 212.8)"><tspan x="0" y="0">EAK. IT CRE</tspan></text>
    <text class="st4" transform="translate(583.5 212.8)"><tspan x="0" y="0">A</tspan></text>
    <text class="st2" transform="translate(610.9 212.8)"><tspan x="0" y="0">TE</tspan></text>
    <text class="st3" transform="translate(661.1 212.8)"><tspan x="0" y="0">S</tspan></text>
    <text class="st2" transform="translate(686.6 212.8)"><tspan x="0" y="0">.</tspan></text>
  </g>
</svg>