<svg xmlns="http://www.w3.org/2000/svg" viewBox="0 0 24 24" fill="#5059C9"><path d="M19.2 6.4a2.4 2.4 0 1 0 0-4.8 2.4 2.4 0 0 0 0 4.8Zm2.4 1.6h-4a.8.8 0 0 0-.8.8v5.6a4 4 0 0 0 4 4h.4a2 2 0 0 0 2-2V9.6a1.6 1.6 0 0 0-1.6-1.6Z"/><path d="M14.4 5.6a3.2 3.2 0 1 0 0-6.4 3.2 3.2 0 0 0 0 6.4Z" fill="#7B83EB"/><path d="M18 8H9.6a1.6 1.6 0 0 0-1.6 1.6v7.2a5.2 5.2 0 0 0 5.2 5.2 5.2 5.2 0 0 0 5.2-5.2V9.6c0-.44-.16-.84-.44-1.16A1.59 1.59 0 0 0 18 8Z" fill="#7B83EB"/><path d="M8 8H2.4A1.6 1.6 0 0 0 .8 9.6v6a1.6 1.6 0 0 0 1.6 1.6H4v2.4a2.4 2.4 0 0 0 2.4 2.4 2.4 2.4 0 0 0 2.4-2.4V9.6C8.8 8.72 8.48 8 8 8Z" opacity=".1"/><rect x="2.4" y="8" width="8" height="10.4" rx="1.6" fill="#4B53BC"/><path d="M6.8 10H4.4a.4.4 0 0 0 0 .8h.8v4.4a.4.4 0 0 0 .8 0v-4.4h.8a.4.4 0 0 0 0-.8Z" fill="white"/></svg>